<svg aria-hidden="true" style="position:absolute;width:0;height:0;overflow:hidden" xmlns="http://www.w3.org/2000/svg"><defs>
<symbol id="icon-pie-chart" viewBox="0 0 32 32">
<path fill="none" stroke="#323f47" style="stroke:var(--color1, #323f47)" stroke-linejoin="round" stroke-linecap="round" stroke-width="2.667" d="M22.933 18.667c.369 0 .554 0 .704.082a.713.713 0 0 1 .293.324c.067.157.05.324.016.659a10.665 10.665 0 0 1-12.694 9.397c-2.069-.412-3.97-1.428-5.462-2.919s-2.508-3.392-2.919-5.461a10.666 10.666 0 0 1 9.397-12.694c.334-.034.502-.05.659.016.13.055.257.17.324.293.082.15.082.334.082.704v8.533c0 .373 0 .56.073.703a.67.67 0 0 0 .291.291c.143.073.329.073.703.073h8.533z"/><path fill="none" stroke="#9be1a0" style="stroke:var(--color2, #9be1a0)" stroke-linejoin="round" stroke-linecap="round" stroke-width="2.667" d="M18.667 3.733c0-.369 0-.554.082-.704a.713.713 0 0 1 .324-.293c.157-.067.324-.05.659-.016a10.67 10.67 0 0 1 9.549 9.549c.033.334.05.502-.016.659a.704.704 0 0 1-.293.324c-.15.082-.334.082-.704.082h-8.533c-.373 0-.56 0-.703-.073a.67.67 0 0 1-.291-.291c-.073-.143-.073-.329-.073-.703V3.734z"/>
</symbol>
<symbol id="icon-x" viewBox="0 0 32 32">
<path d="M7.488 6.366c-.534.175-1.013.687-1.145 1.224-.083.338-.035.827.113 1.143.093.197.905 1.041 3.617 3.761L13.571 16l-3.498 3.506c-2.768 2.775-3.525 3.562-3.625 3.774-.185.385-.183 1.061.002 1.439.188.358.473.643.82.826l.011.005c.378.185 1.054.187 1.439.002.211-.101.999-.857 3.774-3.625L16 18.429l3.506 3.498c2.775 2.768 3.562 3.525 3.774 3.625.385.185 1.061.183 1.439-.002.358-.188.643-.473.826-.82l.005-.011c.185-.378.187-1.054.002-1.439-.101-.211-.857-.999-3.625-3.774L18.429 16l3.498-3.506c2.768-2.775 3.525-3.562 3.625-3.774.185-.385.183-1.061-.002-1.439a1.956 1.956 0 0 0-.82-.826l-.011-.005c-.378-.185-1.054-.187-1.439-.002-.211.101-.999.857-3.774 3.625L16 13.571l-3.506-3.498C9.726 7.313 8.932 6.55 8.726 6.452c-.319-.151-.917-.192-1.238-.087z"/>
</symbol>
<symbol id="icon-upload" viewBox="0 0 32 32">
<path d="M15.547 2.626a2.05 2.05 0 0 0-.374.205c-.117.082-1.741 1.68-3.608 3.552-2.347 2.355-3.432 3.478-3.517 3.645-.17.331-.173.942-.008 1.259.234.472.713.79 1.265.79h.002c.653.006.626.029 3.051-2.389l2.2-2.189.014 6.424c.014 6.387.014 6.426.125 6.664.22.489.702.823 1.263.823l.041-.001h-.002l.039.001c.561 0 1.043-.334 1.26-.814l.003-.009c.11-.238.11-.277.125-6.664l.014-6.424 2.2 2.189c2.426 2.418 2.398 2.395 3.051 2.389h.016c.756 0 1.368-.612 1.368-1.368v-.017.001c.006-.677.16-.494-3.67-4.334-3.832-3.842-3.786-3.803-4.402-3.794-.163 0-.32.022-.47.064l.012-.003zM3.542 18.654a1.356 1.356 0 0 0-.905.946l-.002.009c-.069.237-.078.73-.062 3.36.018 3.027.021 3.091.139 3.483.218.715.512 1.197 1.075 1.76.573.574 1.059.867 1.786 1.077l.427.123h20l.427-.123c.726-.21 1.213-.502 1.786-1.077.574-.573.867-1.059 1.077-1.786.123-.426.123-.442.123-3.6 0-3.106-.002-3.179-.11-3.414a1.383 1.383 0 0 0-1.263-.823l-.041.001h.002l-.039-.001c-.561 0-1.043.334-1.26.814l-.003.009c-.107.232-.112.341-.138 3.254-.026 2.957-.029 3.016-.141 3.226-.128.254-.34.45-.599.554l-.008.003c-.238.107-.291.109-9.813.109-9.512 0-9.574-.002-9.813-.109a1.13 1.13 0 0 1-.578-.497l-.003-.006-.139-.214-.027-3.04c-.026-2.941-.03-3.048-.138-3.28a1.44 1.44 0 0 0-1.77-.756l.01-.003z"/></symbol>
<symbol id="icon-trash" viewBox="0 0 32 32">
<path d="M11.58 2.568a1.535 1.535 0 0 0-.918.783l-.004.009c-.098.19-.124.324-.124.64 0 .618.266 1.052.826 1.342l.24.124h8.8l.24-.124c.56-.29.826-.724.826-1.342 0-.316-.026-.45-.124-.64a1.55 1.55 0 0 0-.683-.694l-.009-.004-.25-.128-4.32-.01c-2.688-.006-4.388.01-4.5.044zM3.692 6.246c-.376.06-.702.24-.945.499l-.001.001a1.597 1.597 0 0 0-.495.947l-.001.008a1.727 1.727 0 0 0 .496 1.552c.416.418.866.558 1.79.558l.454.002.416 6.252c.562 8.486.58 8.694.84 9.64a5.622 5.622 0 0 0 3.521 3.718l.039.012c.952.306 2.064.374 6.194.374 4.864 0 5.744-.086 6.904-.674a5.52 5.52 0 0 0 2.761-3.151l.011-.039c.322-.96.338-1.132.918-9.88l.416-6.252.454-.002c.924 0 1.374-.14 1.79-.558a1.73 1.73 0 0 0 .494-1.562l.002.011a1.6 1.6 0 0 0-.495-.955l-.001-.001a1.627 1.627 0 0 0-.986-.503l-.008-.001c-.424-.068-24.154-.064-24.568.004zm19.722 3.59c0 .222-.924 13.692-.962 14.03-.11.962-.312 1.44-.77 1.816-.295.24-.662.402-1.064.449l-.01.001c-.492.07-8.724.07-9.216 0a2.08 2.08 0 0 1-1.078-.453l.004.003c-.452-.372-.656-.842-.77-1.788-.038-.318-.962-13.818-.962-14.058 0-.012 3.336-.022 7.414-.022s7.414.01 7.414.022z"/>
</symbol>
<symbol id="icon-settings" viewBox="0 0 32 32">
<path d="M14.388.16c-.956.406-1.834 1.28-2.214 2.204-.22.534-.282.828-.318 1.466-.04.756-.116.898-.546 1.028-.368.11-.596.062-.85-.18-.854-.81-1.834-1.21-2.972-1.21h-.016a4.087 4.087 0 0 0-3.649 2.243l-.011.023a4.058 4.058 0 0 0-.458 1.887c0 .578.119 1.128.335 1.628l-.01-.027c.19.46.34.694.77 1.202.324.38.352.432.352.66l.001.032a.87.87 0 0 1-.354.701l-.002.002c-.13.086-.288.12-.692.146a3.899 3.899 0 0 0-2.682 1.21l-.002.002a3.95 3.95 0 0 0-.902 1.312l-.01.026-.156.38v2.424l.156.38c.21.508.486.914.912 1.34.786.786 1.606 1.148 2.746 1.21.334.02.65.066.736.108.214.11.356.372.356.666 0 .228-.028.28-.35.662-.43.506-.582.74-.77 1.2-.702 1.7-.24 3.596 1.172 4.812.374.322 1.132.7 1.678.838 1.248.314 2.654-.026 3.682-.89.522-.44.706-.512 1.032-.416.452.138.568.334.616 1.038.07 1.074.446 1.902 1.21 2.666a3.93 3.93 0 0 0 1.338.912l.38.156h1.214c1.208 0 1.216 0 1.582-.15.956-.388 1.874-1.296 2.25-2.222.212-.526.276-.822.31-1.454.036-.658.11-.856.374-.992.38-.198.582-.14 1.116.312.836.706 1.722 1.038 2.772 1.038 1.59.002 3-.882 3.7-2.318.27-.506.429-1.106.429-1.744l-.001-.084v.004-.034c0-.981-.348-1.881-.928-2.583l.006.007a11.221 11.221 0 0 1-.402-.515l-.022-.031c-.2-.3-.06-.822.264-.984.082-.042.388-.09.682-.108 1.1-.068 1.916-.436 2.692-1.21.424-.424.718-.856.918-1.35.15-.364.15-.374.15-1.582s0-1.218-.15-1.582c-.388-.958-1.296-1.874-2.222-2.25a3.72 3.72 0 0 0-1.455-.312h-.003c-.49-.026-.636-.054-.77-.144-.194-.132-.296-.384-.302-.74-.004-.222.02-.282.2-.48.86-.948 1.234-1.854 1.234-2.988l.001-.092c0-.634-.159-1.23-.439-1.752l.01.02a4.122 4.122 0 0 0-3.709-2.333c-.995 0-1.907.353-2.618.941l.007-.006a9.495 9.495 0 0 1-.519.404l-.029.02c-.304.198-.824.06-.986-.264a2.608 2.608 0 0 1-.108-.678v-.004a3.878 3.878 0 0 0-1.208-2.69l-.002-.002A4.005 4.005 0 0 0 17.61.161l-.026-.01c-.366-.15-.368-.15-1.6-.146-1.234.004-1.236.004-1.594.156zm2.066 2.766c.486.224.67.542.726 1.258.058.732.124.99.408 1.572.198.408.326.586.676.938.354.36.518.478.936.684.65.318 1.026.412 1.654.416a3.712 3.712 0 0 0 2.498-.938c.48-.418.662-.51 1.03-.508.354.002.66.136.88.386s.302.516.274.886c-.022.326-.104.466-.634 1.1a3.475 3.475 0 0 0-.794 2.218v.044-.002c-.004 1.526.758 2.812 2.028 3.432.596.29.866.358 1.636.41.612.042.79.102 1.05.36a1.168 1.168 0 0 1-.307 1.869l-.007.003a2.533 2.533 0 0 1-.686.126h-.006c-.732.058-.99.124-1.576.408a2.878 2.878 0 0 0-.934.674l-.002.002a3.68 3.68 0 0 0-1.099 2.628c0 .947.356 1.81.942 2.463l-.003-.003c.42.48.51.662.508 1.03v.021c0 .341-.149.648-.385.858l-.001.001a1.099 1.099 0 0 1-.891.273l.006.001c-.326-.022-.468-.104-1.1-.634a3.56 3.56 0 0 0-2.26-.802l-.063.001h.003c-.626.002-1.002.096-1.654.414-.418.204-.58.322-.934.68-.281.26-.509.572-.669.922l-.007.018c-.292.598-.36.868-.412 1.638-.04.612-.102.79-.36 1.05-.208.212-.498.343-.818.343s-.61-.131-.818-.343c-.244-.248-.316-.444-.364-1.002-.054-.638-.162-1.076-.37-1.494a3.864 3.864 0 0 0-4.42-2l.027-.006a4.212 4.212 0 0 0-1.518.829l.006-.005c-.48.418-.662.51-1.03.508h-.021c-.341 0-.648-.149-.858-.385l-.001-.001a1.099 1.099 0 0 1-.273-.891l-.001.006c.022-.326.104-.468.634-1.1.768-.916 1.018-2.346.614-3.484a3.723 3.723 0 0 0-.915-1.431l-.001-.001a2.74 2.74 0 0 0-.919-.667l-.017-.007c-.596-.286-.87-.354-1.632-.406-.612-.04-.79-.102-1.05-.36-.212-.208-.343-.498-.343-.818s.131-.61.343-.818c.248-.244.444-.316 1.002-.364 1.128-.096 1.848-.424 2.576-1.174.35-.36.564-.704.766-1.232.206-.53.266-.856.27-1.426a3.707 3.707 0 0 0-.939-2.448l.003.004c-.418-.48-.51-.662-.508-1.03v-.021c0-.341.149-.648.385-.858l.001-.001a1.099 1.099 0 0 1 .891-.273l-.006-.001c.326.022.468.104 1.1.634 1.1.922 2.758 1.062 4.16.352a3.57 3.57 0 0 0 1.536-1.59c.286-.596.354-.87.406-1.632.024-.352.072-.638.124-.736.292-.558.968-.812 1.508-.566zm-1.38 7.662a5.527 5.527 0 0 0-4.385 4.03l-.009.038c-.12.452-.138.622-.138 1.344s.018.892.138 1.344a5.417 5.417 0 0 0 1.449 2.525l.001.001c.718.72 1.52 1.18 2.526 1.45.452.12.622.138 1.344.138.724 0 .892-.018 1.348-.14a5.545 5.545 0 0 0 3.963-3.935l.009-.039c.12-.452.138-.622.138-1.344 0-.724-.018-.892-.14-1.348a5.529 5.529 0 0 0-3.936-3.957l-.038-.009a6.076 6.076 0 0 0-2.303-.094l.033-.004zm1.53 2.984c.462.122.826.328 1.16.664.456.449.739 1.074.739 1.764s-.283 1.315-.739 1.764c-.449.456-1.074.739-1.764.739s-1.315-.283-1.764-.739c-.457-.449-.741-1.073-.741-1.764s.284-1.315.741-1.764a2.467 2.467 0 0 1 2.385-.66l-.017-.004z"/>
</symbol>
<symbol id="icon-log-out" viewBox="0 0 32 32">
<path d="M5.934 2.564a4.88 4.88 0 0 0-1.315.469l.027-.013c-.608.352-1.276 1.02-1.626 1.626a4.427 4.427 0 0 0-.456 1.337l-.004.027c-.038.246-.052 3.53-.04 10.23.018 10.772-.008 9.926.314 10.72.372.92 1.294 1.836 2.23 2.216.724.294.688.29 4.136.29h3.2l.24-.124c.56-.292.826-.724.826-1.342s-.266-1.05-.826-1.342l-.24-.124-3.04-.028c-2.698-.022-3.058-.036-3.202-.114a1.398 1.398 0 0 1-.56-.598l-.004-.008c-.094-.204-.098-.612-.098-9.786s.004-9.582.098-9.786a1.4 1.4 0 0 1 .557-.602l.007-.004c.144-.078.504-.092 3.202-.114l3.04-.028.25-.128c.302-.154.541-.394.688-.689l.004-.009c.098-.19.124-.324.124-.64s-.026-.45-.124-.64a1.55 1.55 0 0 0-.683-.694l-.009-.004-.25-.128-3.094-.008c-1.7-.004-3.218.012-3.372.038zm14.98 5.334a1.551 1.551 0 0 0-.918.787l-.004.009a1.716 1.716 0 0 0-.018 1.264l-.004-.012c.064.14.852.97 2.264 2.386l2.162 2.172-12.796.03-.24.124c-.56.292-.826.724-.826 1.342s.266 1.05.826 1.342l.24.124 12.796.03-2.162 2.172c-1.412 1.416-2.2 2.246-2.264 2.386a1.71 1.71 0 0 0 .026 1.263l-.004-.011c.29.562.722.828 1.342.826a1.418 1.418 0 0 0 .622-.103l-.009.003c.274-.13 7.236-7.056 7.404-7.366.092-.17.116-.302.116-.666s-.024-.496-.116-.666c-.17-.314-7.132-7.238-7.4-7.36a1.913 1.913 0 0 0-1.049-.073l.013-.002z"/>
</symbol>
<symbol id="icon-eye-off" viewBox="0 0 32 32">
<path d="M.534.154a1.64 1.64 0 0 0-.381.381c-.146.216-.154.259-.154.798 0 .542.008.581.158.805.086.13 1.414 1.493 2.952 3.027l2.794 2.792-1.237 1.235c-1.85 1.846-3.05 3.411-4.286 5.584l-.381.669v1.118l.325.584c.661 1.194 1.834 2.877 2.878 4.133.654.786 2.117 2.269 2.797 2.834 2.688 2.235 5.304 3.464 8.24 3.867a15.58 15.58 0 0 0 3.65-.035l-.077.008a15.823 15.823 0 0 0 4.182-1.211l-.1.04c.606-.274.653-.298 1.403-.73l.445-.254 3.022 3.014c1.662 1.659 3.099 3.054 3.192 3.101.125.062.322.086.726.086.522 0 .568-.01.782-.154a1.64 1.64 0 0 0 .381-.381c.146-.216.154-.259.154-.798 0-.542-.008-.581-.158-.805C31.627 29.54 2.255.192 2.043.084c-.125-.061-.325-.085-.726-.085-.522 0-.568.01-.782.154zM14.773 3.95c-.57.058-1.286.173-1.827.296a1.453 1.453 0 0 0-.968.677l-.004.007c-.12.211-.191.464-.191.733 0 .206.041.402.117.581l-.004-.01c.15.352.509.674.869.779.347.104.454.101 1.062-.024 2.402-.493 4.845-.147 7.184 1.016.456.227 1.008.528 1.229.669 1.862 1.186 3.632 2.878 5.234 5.006.421.56 1.152 1.637 1.402 2.066l.147.253-.122.202a23.772 23.772 0 0 1-1.869 2.694c-.18.217-.354.458-.513.711l-.017.029a1.401 1.401 0 0 0 .218 1.555l-.001-.001a1.399 1.399 0 0 0 1.909.213l-.004.003c.517-.381 2.144-2.666 3.072-4.314l.302-.536v-1.117l-.325-.584a31.14 31.14 0 0 0-1.833-2.809l.062.089c-3.448-4.71-7.819-7.606-12.277-8.133-.691-.082-2.262-.109-2.854-.05zm-3.656 9.562a5.514 5.514 0 0 0-.609 3.162l-.002-.024c.304 2.611 2.25 4.555 4.85 4.842a5.517 5.517 0 0 0 2.978-.542l-.032.014.406-.205 1.446 1.446c.795.797 1.446 1.466 1.446 1.486 0 .11-1.514.766-2.347 1.018-1.195.362-2.104.491-3.413.485-1.424-.008-2.389-.187-3.733-.698-1.718-.651-3.218-1.624-4.95-3.213-1.318-1.208-3.107-3.442-4.032-5.03L2.978 16l.202-.334a23.543 23.543 0 0 1 4.211-5.131l.574-.518 3.274 3.274-.122.221zm5.27 5.109c-.464.106-1.186-.003-1.68-.254-.357-.181-.893-.717-1.074-1.074a2.742 2.742 0 0 1-.264-1.647l-.002.015.034-.205 1.566 1.565c1.498 1.496 1.56 1.568 1.419 1.6z"/>
</symbol>
<symbol id="icon-eye" viewBox="0 0 32 32"><path d="M15.2 3.925c-.102.011-.438.046-.747.075-2.469.24-5.189 1.374-7.512 3.138-1.666 1.262-3.355 2.99-4.73 4.835a31.973 31.973 0 0 0-1.802 2.726l-.085.154-.325.584v1.126l.325.584c.389.704 1.262 2.035 1.877 2.864 1.36 1.834 3.082 3.598 4.706 4.824 2.376 1.794 4.885 2.851 7.52 3.173.685.083 2.459.085 3.146 0 4.214-.512 8.104-2.912 11.554-7.128.816-1 1.968-2.686 2.549-3.733l.325-.584v-1.126l-.325-.584a31.14 31.14 0 0 0-1.833-2.809l.062.089c-3.446-4.71-7.826-7.61-12.277-8.131-.522-.062-2.126-.112-2.427-.077zm1.909 2.905c.866.096 1.654.278 2.406.54l-.076-.023c.784.259 2.117.89 2.802 1.326 1.862 1.186 3.632 2.878 5.234 5.006.422.56 1.152 1.637 1.403 2.067l.147.253-.147.253c-.251.43-.981 1.507-1.403 2.067-1.602 2.128-3.371 3.821-5.234 5.006-.799.489-1.723.936-2.692 1.291l-.11.035c-2.864.946-5.667.726-8.45-.658-1.45-.723-2.386-1.384-3.832-2.71-1.318-1.21-3.107-3.442-4.034-5.032l-.147-.253.147-.253c.403-.693 1.325-2.005 1.939-2.76 2.386-2.934 4.912-4.813 7.658-5.696a10.62 10.62 0 0 1 3.304-.515c.382 0 .759.02 1.131.058l-.047-.004zm-1.973 3.808c-3.074.504-5.075 3.44-4.44 6.515.422 2.043 2.11 3.722 4.187 4.162a6.566 6.566 0 0 0 2.273-.006l-.04.006a5.498 5.498 0 0 0 4.192-4.162l.007-.036a6.566 6.566 0 0 0-.006-2.273l.006.04c-.442-2.08-2.115-3.762-4.168-4.189a6.485 6.485 0 0 0-2.044-.052l.033-.004zm1.533 2.885c.821.213 1.597.989 1.81 1.808.17.658.054 1.462-.285 1.992-.501.779-1.312 1.237-2.194 1.237-.696 0-1.23-.221-1.76-.725a2.505 2.505 0 0 1-.715-2.521l-.004.018c.21-.806.986-1.59 1.786-1.806a3.086 3.086 0 0 1 1.382.002l-.021-.004z"/>
</symbol>
<symbol id="icon-edit" viewBox="0 0 32 32">
<path d="M24.3 1.202a5.697 5.697 0 0 0-2.106.879l.02-.013c-.29.186-2.478 2.344-9.686 9.546-8.196 8.186-9.33 9.34-9.454 9.606-.078.164-.6 1.98-1.16 4.034C.752 29.508.76 29.466 1.06 30.092c.186.397.502.707.893.88l.011.004c.564.258.596.252 4.842-.912 2.084-.572 3.896-1.092 4.026-1.158.168-.082 2.826-2.706 9.424-9.298 5.054-5.05 9.318-9.35 9.476-9.554a5.56 5.56 0 0 0-3.398-8.851l-.034-.005a6.883 6.883 0 0 0-2.038.009l.038-.005zm1.562 3.57c.806.214 1.444 1.052 1.444 1.894 0 .362-.166.858-.39 1.158-.104.14-4.162 4.226-9.016 9.08l-8.828 8.824-1.908.52c-1.048.286-1.914.514-1.922.506-.006-.008.218-.864.498-1.904l.512-1.89 8.888-8.896c4.888-4.892 9-8.968 9.14-9.058a1.945 1.945 0 0 1 1.596-.231l-.014-.003z"/>
</symbol>
<symbol id="icon-water-glass" viewBox="0 0 28 32">
<path fill="#9be1a0" style="fill:var(--color1, #9be1a0)" d="M2.188.075a3.883 3.883 0 0 0-.643.27l.021-.01C.689.791.074 1.758.016 2.774c-.017.294.276 3.009 1.308 12.123.731 6.459 1.363 11.888 1.403 12.065.613 2.681 2.708 4.652 5.303 4.993.263.035 2.339.045 6.502.034 6.701-.019 6.228.002 7.126-.299 1.677-.561 3.08-1.896 3.78-3.6.379-.922.381-.943 1.155-8.083.394-3.637.974-8.96 1.29-11.828.454-4.123.569-5.295.548-5.597-.075-1.076-.803-1.998-1.923-2.435l-.314-.122-11.876-.01C4.073.008 2.407.016 2.188.075zm23.779 2.606c.059.067.107.159.107.206 0 .164-1.037 9.212-1.059 9.234-.012.012-.296.072-.631.133-2.419.443-4.106.393-5.741-.172-.972-.335-1.66-.724-2.817-1.594-.856-.643-1.342-.944-1.98-1.223a7.79 7.79 0 0 0-1.729-.559l-.052-.009c-2.123-.435-4.542-.15-7.7.905-.641.214-1.172.383-1.18.376-.018-.016-.814-6.966-.814-7.102 0-.048.059-.144.13-.213l.131-.127 23.229.023.107.122zM8.511 18.865c.323.159.548.392.731.753.102.204.18.67.428 2.569.084.639.129.837.246 1.082.14.294.36.508.655.64.07.031.576.063 1.234.078l1.116.025.316.156c.564.277.845.721.879 1.385.016.331.002.451-.082.673a1.862 1.862 0 0 1-.771.877l-.009.005-.242.128-1.252.015c-1.356.016-1.616-.014-2.275-.26-1.318-.492-2.373-1.664-2.751-3.054-.146-.534-.539-3.523-.503-3.814.058-.463.383-.972.775-1.215.437-.27 1.007-.286 1.504-.042z"/>
</symbol>
<symbol id="icon-arrow" viewBox="0 0 32 32">
<path d="M6.373 12.665c.123.299.409.597 4.384 4.572 4.683 4.683 4.439 4.471 5.163 4.51.29.018.444-.004.693-.096.309-.112.475-.27 4.597-4.389 4.713-4.704 4.496-4.457 4.537-5.182.03-.533-.121-.917-.516-1.312a1.7 1.7 0 0 0-1.867-.412l.012-.004c-.293.107-.492.295-3.844 3.641L16 17.518l-3.532-3.525c-3.351-3.346-3.55-3.534-3.844-3.641a1.702 1.702 0 0 0-1.856.415l-.001.001a1.684 1.684 0 0 0-.39 1.908l-.004-.011z"/>
</symbol>
<symbol id="icon-minus" viewBox="0 0 203 32">
<path d="M17.131 6.784c-1.941.459-3.008 1.12-4.587 2.837-1.963 2.123-2.528 3.573-2.528 6.421 0 2.912.576 4.341 2.667 6.56 2.997 3.211-6.56 2.901 88.651 2.901 79.979 0 84.011-.032 85.515-.608 1.803-.704 4.437-3.317 5.248-5.227.704-1.643.704-5.6 0-7.232a12.516 12.516 0 0 0-4.909-5.109l-.061-.032-1.515-.704-83.605-.053c-48.267-.032-84.139.075-84.875.245z"/>
</symbol>
<symbol id="icon-plus" viewBox="0 0 32 32">
<path d="M15.616 1.619a1.648 1.648 0 0 0-1.03.904l-.004.01c-.029.062-.061 2.607-.076 6.028l-.025 5.92-5.92.025c-6.565.03-6.036 0-6.493.376-.647.532-.647 1.704 0 2.237.456.376-.072.345 6.493.376l5.92.027.025 5.92c.03 6.563 0 6.035.376 6.491.532.647 1.704.647 2.237 0 .376-.456.345.072.376-6.491l.027-5.92 5.92-.027c6.563-.03 6.035 0 6.491-.376.647-.532.647-1.704 0-2.237-.456-.376.072-.345-6.491-.376l-5.92-.025-.027-5.92c-.025-5.517-.034-5.933-.121-6.11-.333-.669-1.078-1.021-1.757-.832z"/>
</symbol>
</defs>
</defs>
</svg>
