<svg width="16" height="17" viewBox="0 0 16 17" fill="none" xmlns="http://www.w3.org/2000/svg">
<g clip-path="url(#clip0_25_4287)">
<path d="M8 10.5C9.10457 10.5 10 9.60457 10 8.5C10 7.39543 9.10457 6.5 8 6.5C6.89543 6.5 6 7.39543 6 8.5C6 9.60457 6.89543 10.5 8 10.5Z" stroke="#323F47" stroke-width="1.5" stroke-linecap="round" stroke-linejoin="round"/>
<path d="M12.9332 10.5C12.8444 10.701 12.818 10.9241 12.8572 11.1404C12.8964 11.3566 12.9995 11.5562 13.1532 11.7133L13.1932 11.7533C13.3171 11.8771 13.4155 12.0242 13.4826 12.186C13.5497 12.3479 13.5842 12.5214 13.5842 12.6966C13.5842 12.8718 13.5497 13.0454 13.4826 13.2072C13.4155 13.3691 13.3171 13.5161 13.1932 13.64C13.0693 13.7639 12.9223 13.8623 12.7604 13.9294C12.5986 13.9965 12.4251 14.031 12.2498 14.031C12.0746 14.031 11.9011 13.9965 11.7393 13.9294C11.5774 13.8623 11.4303 13.7639 11.3065 13.64L11.2665 13.6C11.1094 13.4463 10.9098 13.3432 10.6936 13.304C10.4773 13.2647 10.2542 13.2912 10.0532 13.38C9.85599 13.4645 9.68783 13.6048 9.56938 13.7837C9.45093 13.9625 9.38736 14.1721 9.3865 14.3866V14.5C9.3865 14.8536 9.24603 15.1927 8.99598 15.4428C8.74593 15.6928 8.40679 15.8333 8.05317 15.8333C7.69955 15.8333 7.36041 15.6928 7.11036 15.4428C6.86031 15.1927 6.71984 14.8536 6.71984 14.5V14.44C6.71468 14.2193 6.64325 14.0053 6.51484 13.8258C6.38644 13.6462 6.20699 13.5095 5.99984 13.4333C5.79876 13.3446 5.57571 13.3181 5.35945 13.3573C5.14318 13.3965 4.94362 13.4996 4.7865 13.6533L4.7465 13.6933C4.62267 13.8173 4.47562 13.9156 4.31376 13.9827C4.15189 14.0498 3.97839 14.0843 3.80317 14.0843C3.62795 14.0843 3.45445 14.0498 3.29258 13.9827C3.13072 13.9156 2.98367 13.8173 2.85984 13.6933C2.73587 13.5695 2.63752 13.4224 2.57042 13.2605C2.50333 13.0987 2.46879 12.9252 2.46879 12.75C2.46879 12.5747 2.50333 12.4012 2.57042 12.2394C2.63752 12.0775 2.73587 11.9305 2.85984 11.8066L2.89984 11.7666C3.05353 11.6095 3.15663 11.4099 3.19584 11.1937C3.23505 10.9774 3.20858 10.7544 3.11984 10.5533C3.03533 10.3561 2.89501 10.1879 2.71615 10.0695C2.53729 9.95105 2.3277 9.88748 2.11317 9.88663H1.99984C1.64622 9.88663 1.30708 9.74615 1.05703 9.4961C0.80698 9.24605 0.666504 8.90692 0.666504 8.55329C0.666504 8.19967 0.80698 7.86053 1.05703 7.61048C1.30708 7.36044 1.64622 7.21996 1.99984 7.21996H2.05984C2.2805 7.2148 2.49451 7.14337 2.67404 7.01497C2.85357 6.88656 2.99031 6.70712 3.0665 6.49996C3.15525 6.29888 3.18172 6.07583 3.14251 5.85957C3.10329 5.6433 3.0002 5.44375 2.8465 5.28663L2.8065 5.24663C2.68254 5.1228 2.58419 4.97574 2.51709 4.81388C2.44999 4.65202 2.41546 4.47851 2.41546 4.30329C2.41546 4.12807 2.44999 3.95457 2.51709 3.79271C2.58419 3.63084 2.68254 3.48379 2.8065 3.35996C2.93033 3.23599 3.07739 3.13765 3.23925 3.07055C3.40111 3.00345 3.57462 2.96891 3.74984 2.96891C3.92506 2.96891 4.09856 3.00345 4.26042 3.07055C4.42229 3.13765 4.56934 3.23599 4.69317 3.35996L4.73317 3.39996C4.89029 3.55365 5.08985 3.65675 5.30611 3.69596C5.52238 3.73518 5.74543 3.7087 5.9465 3.61996H5.99984C6.19702 3.53545 6.36518 3.39513 6.48363 3.21627C6.60208 3.03741 6.66565 2.82782 6.6665 2.61329V2.49996C6.6665 2.14634 6.80698 1.8072 7.05703 1.55715C7.30708 1.3071 7.64622 1.16663 7.99984 1.16663C8.35346 1.16663 8.6926 1.3071 8.94265 1.55715C9.1927 1.8072 9.33317 2.14634 9.33317 2.49996V2.55996C9.33403 2.77448 9.39759 2.98408 9.51604 3.16294C9.63449 3.3418 9.80266 3.48212 9.99984 3.56663C10.2009 3.65537 10.424 3.68184 10.6402 3.64263C10.8565 3.60342 11.0561 3.50032 11.2132 3.34663L11.2532 3.30663C11.377 3.18266 11.5241 3.08431 11.6859 3.01721C11.8478 2.95011 12.0213 2.91558 12.1965 2.91558C12.3717 2.91558 12.5452 2.95011 12.7071 3.01721C12.869 3.08431 13.016 3.18266 13.1398 3.30663C13.2638 3.43046 13.3622 3.57751 13.4293 3.73937C13.4964 3.90124 13.5309 4.07474 13.5309 4.24996C13.5309 4.42518 13.4964 4.59868 13.4293 4.76055C13.3622 4.92241 13.2638 5.06946 13.1398 5.19329L13.0998 5.23329C12.9461 5.39041 12.843 5.58997 12.8038 5.80623C12.7646 6.0225 12.7911 6.24555 12.8798 6.44663V6.49996C12.9643 6.69714 13.1047 6.8653 13.2835 6.98376C13.4624 7.10221 13.672 7.16577 13.8865 7.16663H13.9998C14.3535 7.16663 14.6926 7.3071 14.9426 7.55715C15.1927 7.8072 15.3332 8.14634 15.3332 8.49996C15.3332 8.85358 15.1927 9.19272 14.9426 9.44277C14.6926 9.69282 14.3535 9.83329 13.9998 9.83329H13.9398C13.7253 9.83415 13.5157 9.89771 13.3369 10.0162C13.158 10.1346 13.0177 10.3028 12.9332 10.5Z" stroke="#323F47" stroke-width="1.5" stroke-linecap="round" stroke-linejoin="round"/>
</g>
<defs>
<clipPath id="clip0_25_4287">
<rect width="16" height="16" fill="white" transform="translate(0 0.5)"/>
</clipPath>
</defs>
</svg>
